<?xml version="1.0" encoding="UTF-8"?>
<svg xmlns="http://www.w3.org/2000/svg" id="Layer_1" data-name="Layer 1" viewBox="0 0 547.11 144.36">
  <defs>
    <style>
      .cls-1 {
        fill: #fff;
      }

      .cls-2 {
        fill: #e52321;
      }

      .cls-3 {
        fill: #1b1b1b;
      }
    </style>
  </defs>
  <path class="cls-3" d="M126.22,66.03l10.54,14.5h-6.28l-9.72-13.93h-.93v13.93h-5.14v-34.03h6.02c4.5,0,7.74.84,9.74,2.53,2.2,1.88,3.31,4.36,3.31,7.45,0,2.41-.69,4.48-2.07,6.22-1.38,1.73-3.2,2.84-5.47,3.33M119.83,62.13h1.63c4.86,0,7.3-1.86,7.3-5.58,0-3.48-2.37-5.22-7.1-5.22h-1.83v10.8Z"></path>
  <polygon class="cls-3" points="165.16 51.33 151.52 51.33 151.52 59.5 164.76 59.5 164.76 64.33 151.52 64.33 151.52 75.71 165.16 75.71 165.16 80.53 146.38 80.53 146.38 46.5 165.16 46.5 165.16 51.33"></polygon>
  <polygon class="cls-3" points="185.81 51.33 185.81 80.53 180.67 80.53 180.67 51.33 172.85 51.33 172.85 46.5 193.61 46.5 193.61 51.33 185.81 51.33"></polygon>
  <path class="cls-3" d="M220.85,72.27h-14.57l-3.79,8.27h-5.53l16.84-36.17,16.24,36.17h-5.62l-3.57-8.27ZM218.76,67.44l-5.05-11.57-5.29,11.57h10.34Z"></path>
  <rect class="cls-3" x="238.81" y="46.5" width="5.14" height="34.03"></rect>
  <polygon class="cls-3" points="261.77 46.5 261.77 75.71 271.77 75.71 271.77 80.53 256.63 80.53 256.63 46.5 261.77 46.5"></polygon>
  <path class="cls-3" d="M312.98,61.6l6.13,7.4.2-.22c.66-.72,1.29-1.43,1.87-2.12.59-.69,1.15-1.39,1.7-2.09l3.35,3.44c-.41.59-.95,1.27-1.62,2.05-.67.78-1.47,1.68-2.39,2.69l6.3,7.78h-6.39l-3.39-4.17c-3.12,3.22-6.36,4.83-9.72,4.83-3.01,0-5.57-.96-7.67-2.89-2.06-1.94-3.09-4.34-3.09-7.18,0-3.4,1.63-6.22,4.89-8.46l2.23-1.52s.08-.05.16-.11c.07-.06.18-.14.31-.24-2.25-2.4-3.37-4.76-3.37-7.08s.75-4.16,2.25-5.6c1.53-1.44,3.5-2.16,5.91-2.16s4.27.7,5.8,2.09c1.53,1.4,2.29,3.16,2.29,5.29,0,1.47-.42,2.8-1.26,3.99-.82,1.19-2.32,2.61-4.47,4.28M308.9,64.49l-.29.2c-2.1,1.45-3.53,2.62-4.3,3.5-.75.88-1.12,1.81-1.12,2.8,0,1.41.57,2.7,1.7,3.88,1.18,1.13,2.47,1.7,3.88,1.7,1.98,0,4.27-1.3,6.86-3.9l-6.72-8.18ZM310.01,57.98l.42-.31c.72-.54,1.32-1.02,1.79-1.42.47-.4.81-.74,1.01-1.03.44-.54.66-1.21.66-2.01,0-.9-.3-1.62-.9-2.18-.6-.56-1.41-.84-2.43-.84-.93,0-1.7.29-2.34.86-.63.54-.95,1.24-.95,2.09,0,1,.4,1.98,1.19,2.95l1.28,1.54c.04.07.13.18.27.33"></path>
  <polygon class="cls-3" points="360.69 46.5 360.69 75.71 370.7 75.71 370.7 80.53 355.56 80.53 355.56 46.5 360.69 46.5"></polygon>
  <polygon class="cls-3" points="398.86 51.33 385.22 51.33 385.22 59.5 398.46 59.5 398.46 64.33 385.22 64.33 385.22 75.71 398.86 75.71 398.86 80.53 380.08 80.53 380.08 46.5 398.86 46.5 398.86 51.33"></polygon>
  <rect class="cls-3" x="410.12" y="46.5" width="5.14" height="34.03"></rect>
  <path class="cls-3" d="M447.19,51.57l-4.16,2.47c-.78-1.35-1.52-2.23-2.23-2.65-.73-.47-1.68-.71-2.84-.71-1.42,0-2.61.41-3.55,1.21-.94.79-1.41,1.79-1.41,3,0,1.66,1.23,3,3.7,4.01l3.39,1.39c2.76,1.12,4.78,2.48,6.06,4.09,1.28,1.61,1.92,3.58,1.92,5.92,0,3.13-1.04,5.71-3.13,7.76-2.1,2.06-4.71,3.09-7.82,3.09s-5.39-.87-7.32-2.62c-1.9-1.75-3.08-4.21-3.55-7.38l5.2-1.15c.23,2,.64,3.38,1.23,4.14,1.06,1.47,2.6,2.2,4.63,2.2,1.6,0,2.93-.54,3.99-1.61,1.06-1.07,1.59-2.43,1.59-4.08,0-.66-.09-1.27-.28-1.82-.18-.55-.47-1.06-.86-1.52-.39-.46-.89-.9-1.51-1.3-.62-.4-1.35-.79-2.2-1.16l-3.28-1.37c-4.66-1.97-6.99-4.85-6.99-8.64,0-2.56.98-4.69,2.93-6.41,1.95-1.73,4.39-2.6,7.3-2.6,3.92,0,6.99,1.91,9.19,5.73"></path>
  <path class="cls-3" d="M463.91,46.5v20.5c0,2.92.48,5.06,1.43,6.41,1.42,1.95,3.43,2.93,6.02,2.93s4.61-.98,6.04-2.93c.96-1.31,1.43-3.45,1.43-6.41v-20.5h5.14v21.91c0,3.59-1.12,6.54-3.35,8.86-2.51,2.59-5.6,3.88-9.26,3.88s-6.74-1.29-9.23-3.88c-2.23-2.32-3.35-5.27-3.35-8.86v-21.91h5.14Z"></path>
  <path class="cls-3" d="M508.16,66.03l10.54,14.5h-6.28l-9.72-13.93h-.92v13.93h-5.14v-34.03h6.02c4.49,0,7.74.84,9.74,2.53,2.2,1.88,3.31,4.36,3.31,7.45,0,2.41-.69,4.48-2.07,6.22-1.38,1.73-3.2,2.84-5.47,3.33M501.77,62.13h1.63c4.86,0,7.3-1.86,7.3-5.58,0-3.48-2.37-5.22-7.1-5.22h-1.83v10.8Z"></path>
  <polygon class="cls-3" points="528.33 46.5 528.33 80.53 547.11 80.53 547.11 75.7 533.46 75.7 533.46 64.33 546.71 64.33 546.71 59.5 533.46 59.5 533.46 51.33 547.11 51.33 547.11 46.5 528.33 46.5"></polygon>
  <polygon class="cls-1" points="48.05 93.4 62.68 95.34 62.58 83.56 48.05 83.56 48.05 93.4"></polygon>
  <path class="cls-1" d="M62.73,75.08c-.62.14-1.32.24-2.13.28-.8.05-1.66.09-2.56.14-.9.05-1.8.05-2.75.05h-2.6c0-.47-.05-1.18-.05-2.08v-7.2c0-.43.05-.71.05-.99.05-.24.05-.47.05-.71h1.8c.76.05,1.56.05,2.42.05s1.7.05,2.56.1c.9.05,1.61.14,2.27.19-.05-.38-.09-.76-.09-1.14s0-.76.09-1.14c-.57.05-1.14.09-1.75.14s-1.28.05-1.99.1c-.71.05-1.51.09-2.37.09-.85.05-1.85.05-2.93.05,0-.47-.05-1.18-.05-2.08-.05-.95-.05-1.89-.05-2.84s0-1.75.05-2.46c.05-.71.1-1.47.1-2.27,1.23,0,2.27,0,3.12.05.9.05,1.66.09,2.41.14.71.05,1.42.1,2.08.14.66.05,1.37.09,2.18.14-.05-.38-.09-.76-.09-1.14s0-.76.09-1.14c-1.14.05-2.23.09-3.31.14-1.09.05-2.18.05-3.31.05s-2.22,0-3.31-.05c-1.09-.05-2.22-.09-3.31-.14.05,1.61.14,3.17.19,4.78.05,1.61.1,3.22.1,4.92v6.39c0,1.66-.05,3.27-.1,4.83-.05,1.56-.09,3.12-.19,4.73,1.14-.05,2.27-.05,3.36-.05h6.72c1.09,0,2.18,0,3.31.05-.05-.28-.09-.57-.09-.99v-.57c0-.19.05-.38.09-.57"></path>
  <polygon class="cls-1" points="64.48 97.71 47.86 95.68 47.86 100.65 64.43 102.68 64.48 97.71"></polygon>
  <polygon class="cls-1" points="64.43 104.77 47.86 102.73 47.86 112.77 64.48 110.45 64.43 104.77"></polygon>
  <polygon class="cls-1" points="28.5 110.49 45.45 112.81 45.45 102.82 28.5 104.91 28.5 110.49"></polygon>
  <polygon class="cls-1" points="28.59 102.78 45.54 100.69 45.54 95.72 28.59 97.76 28.59 102.78"></polygon>
  <polygon class="cls-1" points="65.05 26.37 47.91 24.24 47.91 26.42 65.05 28.55 65.05 26.37"></polygon>
  <path class="cls-1" d="M68.31,61.26v6.39c0,1.61-.05,3.22-.1,4.83-.05,1.56-.09,3.17-.19,4.69,1.23-.05,2.37-.05,3.46-.05h6.86c1.14,0,2.27,0,3.41.05-.14-.38-.19-.71-.19-.99,0-.33.05-.71.19-1.14-1.85.24-3.6.38-5.21.43-1.61.05-3.31.05-5.07.05-.05-1.8-.05-3.88-.1-6.16-.05-2.32-.05-5.02-.05-8.14,0-1.66.05-3.27.1-4.83.05-1.56.09-3.17.19-4.83-.33.05-.66.09-.95.14-.33.05-.61.05-.9.05-.33,0-.62,0-.9-.05-.33-.05-.61-.1-.95-.14.05,1.66.14,3.27.19,4.83.1,1.61.1,3.22.19,4.88"></path>
  <path class="cls-1" d="M62.44,20.88l-2.27-.28c-.14.47-.71.85-1.42.85-.81,0-1.47-.47-1.47-.99v-.19l-2.93-.38c-.1.47-.71.85-1.42.85-.8,0-1.47-.47-1.47-.99v-.19l-3.55-.42v3.74l14.53,1.8v-3.79Z"></path>
  <polygon class="cls-1" points="62.16 29.87 48.15 28.07 48.1 45.26 62.25 45.26 62.16 29.87"></polygon>
  <path class="cls-1" d="M45.45,19.08l-3.55.47v.19c0,.57-.66.99-1.47.99-.71,0-1.33-.38-1.42-.85l-2.93.38v.19c0,.57-.66.99-1.47.99-.71,0-1.33-.38-1.42-.85l-2.27.28v3.74l14.53-1.8v-3.73Z"></path>
  <polygon class="cls-1" points="45.49 24.24 28.36 26.37 28.36 28.55 45.49 26.42 45.49 24.24"></polygon>
  <path class="cls-1" d="M13.35,52.93h3.36c.95,0,1.85.05,2.6.19.8.14,1.47.38,1.99.76.52.38.95.9,1.23,1.56.33.66.47,1.56.47,2.6,0,1.28-.24,2.32-.66,3.12-.47.8-.99,1.42-1.7,1.89-.71.47-1.47.76-2.27.95-.8.19-1.61.28-2.37.28-.95,0-1.85-.1-2.65-.33v-11.03ZM10.37,61.21v6.39c0,1.61-.05,3.22-.1,4.83-.05,1.56-.09,3.17-.19,4.69.57-.05,1.14-.05,1.8-.05.62,0,1.23,0,1.8.05-.05-1.52-.14-3.08-.19-4.69-.05-1.56-.1-3.17-.1-4.83v-2.03c.52.05.99.09,1.47.09h1.56c.9,0,1.94-.09,3.08-.28,1.14-.24,2.23-.61,3.27-1.18,1.04-.57,1.89-1.37,2.6-2.37.71-.99,1.04-2.32,1.04-3.98,0-1.04-.19-1.89-.47-2.6-.29-.71-.71-1.28-1.18-1.75-.47-.47-1.04-.85-1.61-1.09-.61-.24-1.18-.43-1.8-.57-.62-.14-1.18-.19-1.75-.24-.57-.05-.99-.05-1.37-.05-.24,0-.62,0-.99.05-.38,0-.81.05-1.23.05s-.85,0-1.28.05c-.43.05-.8.05-1.09.05-.57,0-1.18,0-1.8-.05-.61-.05-1.18-.09-1.8-.14.05,1.66.14,3.27.19,4.83.05,1.61.1,3.22.14,4.83"></path>
  <path class="cls-1" d="M30.91,72.48c-.05,1.56-.1,3.12-.19,4.73,1.14-.05,2.22-.05,3.36-.05h6.72c1.09,0,2.18,0,3.31.05-.05-.28-.09-.57-.09-.99v-.57c0-.19.05-.38.09-.57-.57.14-1.28.24-2.08.28-.8.05-1.66.09-2.56.14-.9.05-1.8.05-2.75.05h-2.6c0-.47-.05-1.18-.05-2.08v-7.2c0-.43.05-.71.05-.99.05-.24.05-.47.05-.71h1.8c.76.05,1.56.05,2.41.05s1.7.05,2.56.1c.85.05,1.56.14,2.22.19-.05-.38-.09-.76-.09-1.14s0-.76.09-1.14c-.57.05-1.14.09-1.75.14-.62.05-1.28.05-1.99.1-.71.05-1.51.09-2.37.09-.85.05-1.85.05-2.94.05,0-.47-.05-1.18-.05-2.08-.05-.95-.05-1.89-.05-2.84s0-1.75.05-2.46c.05-.71.1-1.47.1-2.27,1.23,0,2.27,0,3.12.05.9.05,1.66.09,2.41.14.76.05,1.42.1,2.08.14.66.05,1.37.1,2.18.14-.05-.38-.1-.76-.1-1.14s.05-.76.1-1.14c-1.09.05-2.22.09-3.31.14-1.09.05-2.18.05-3.31.05s-2.23,0-3.31-.05c-1.09-.05-2.22-.09-3.31-.14.05,1.61.14,3.17.19,4.78.05,1.61.1,3.22.1,4.92v6.39c0,1.66-.05,3.27-.1,4.83"></path>
  <polygon class="cls-1" points="45.45 19.08 45.45 19.08 45.5 19.08 45.45 19.08"></polygon>
  <polygon class="cls-1" points="30.96 95.25 45.49 93.45 45.49 83.56 30.96 83.56 30.96 95.25"></polygon>
  <polygon class="cls-1" points="45.49 27.98 30.96 29.73 30.96 45.26 45.49 45.26 45.49 27.98"></polygon>
  <path class="cls-2" d="M18.37,64c.8-.19,1.56-.47,2.27-.95.71-.47,1.23-1.09,1.7-1.89.43-.8.66-1.85.66-3.12,0-1.04-.14-1.94-.47-2.6-.28-.66-.71-1.18-1.23-1.56-.52-.38-1.18-.61-1.99-.76-.76-.14-1.66-.19-2.6-.19h-3.36v11.03c.81.24,1.71.33,2.65.33.76,0,1.56-.1,2.37-.28"></path>
  <path class="cls-2" d="M81.76,77.17c-1.14-.05-2.27-.05-3.41-.05h-6.86c-1.09,0-2.23,0-3.46.05.1-1.52.14-3.12.19-4.69.05-1.61.1-3.22.1-4.83v-6.39c-.1-1.66-.1-3.27-.19-4.88-.05-1.56-.14-3.17-.19-4.83.33.05.62.09.95.14.28.05.57.05.9.05.29,0,.57,0,.9-.05.28-.05.62-.09.95-.14-.1,1.66-.14,3.27-.19,4.83-.05,1.56-.1,3.17-.1,4.83,0,3.12,0,5.82.05,8.14.05,2.27.05,4.36.1,6.16,1.75,0,3.45,0,5.07-.05,1.61-.05,3.36-.19,5.21-.43-.14.43-.19.8-.19,1.14,0,.28.05.61.19.99M64.43,104.77l.05,5.68-16.62,2.32v-10.04l16.57,2.04ZM64.48,97.71l-.05,4.97-16.57-2.04v-4.97l16.62,2.04ZM48.1,45.26l.05-17.18,14.01,1.8.1,15.39h-14.16ZM62.68,95.34l-14.63-1.94v-9.85h14.53l.09,11.79ZM62.73,77.21c-1.14-.05-2.22-.05-3.31-.05h-6.72c-1.09,0-2.23,0-3.36.05.1-1.61.14-3.17.19-4.73.05-1.56.09-3.17.09-4.83v-6.39c0-1.71-.05-3.32-.09-4.92-.05-1.61-.14-3.17-.19-4.78,1.09.05,2.23.09,3.31.14,1.09.05,2.18.05,3.31.05s2.23,0,3.31-.05c1.09-.05,2.18-.09,3.31-.14-.1.38-.1.76-.1,1.14s.05.76.1,1.14c-.81-.05-1.52-.1-2.18-.14-.66-.05-1.37-.09-2.08-.14-.76-.05-1.51-.09-2.41-.14-.85-.05-1.89-.05-3.12-.05,0,.8-.05,1.56-.09,2.27-.05.71-.05,1.52-.05,2.46s0,1.89.05,2.84c0,.9.05,1.61.05,2.08,1.09,0,2.08,0,2.93-.05.85,0,1.66-.05,2.37-.09.71-.05,1.37-.05,1.99-.1.62-.05,1.18-.09,1.75-.14-.1.38-.1.76-.1,1.14s.05.76.1,1.14c-.66-.05-1.37-.14-2.27-.19-.85-.05-1.7-.09-2.56-.09s-1.66,0-2.41-.05h-1.8c0,.24,0,.47-.05.71,0,.28-.05.57-.05.99v7.2c0,.9.05,1.61.05,2.08h2.6c.95,0,1.85,0,2.75-.05.9-.05,1.75-.09,2.56-.14.8-.05,1.51-.14,2.13-.28-.05.19-.09.38-.09.57v.57c0,.43.05.71.09.99M65.05,26.37v2.18l-17.14-2.13v-2.18l17.14,2.13ZM52.93,20.73c.71,0,1.33-.38,1.42-.85l2.93.38v.19c0,.52.66.99,1.47.99.71,0,1.28-.38,1.42-.85l2.27.28v3.79l-14.53-1.8v-3.74l3.55.43v.19c0,.52.66.99,1.47.99M30.91,24.62v-3.74l2.27-.28c.1.47.71.85,1.42.85.81,0,1.47-.43,1.47-.99v-.19l2.93-.38c.1.47.71.85,1.42.85.8,0,1.47-.42,1.47-.99v-.19l3.55-.47h0s.05,0,.05,0h-.05v3.74l-14.53,1.8ZM45.5,24.24v2.18l-17.14,2.13v-2.18l17.14-2.13ZM45.5,83.56v9.89l-14.53,1.8v-11.69h14.53ZM30.96,45.26v-15.53l14.53-1.75v17.28h-14.53ZM30.91,56.34c-.05-1.61-.14-3.17-.19-4.78,1.09.05,2.23.09,3.31.14,1.09.05,2.22.05,3.31.05s2.23,0,3.31-.05c1.09-.05,2.23-.09,3.32-.14-.05.38-.1.76-.1,1.14s.05.76.1,1.14c-.81-.05-1.51-.1-2.18-.14-.66-.05-1.33-.09-2.08-.14-.76-.05-1.51-.09-2.41-.14-.85-.05-1.89-.05-3.12-.05,0,.8-.05,1.56-.1,2.27-.05.71-.05,1.52-.05,2.46s0,1.89.05,2.84c0,.9.05,1.61.05,2.08,1.09,0,2.08,0,2.93-.05.85,0,1.66-.05,2.37-.09.71-.05,1.37-.05,1.99-.1.62-.05,1.18-.09,1.75-.14-.09.38-.09.76-.09,1.14s.05.76.09,1.14c-.66-.05-1.37-.14-2.22-.19-.85-.05-1.7-.09-2.56-.09s-1.66,0-2.41-.05h-1.8c0,.24,0,.47-.05.71,0,.28-.05.57-.05.99v7.2c0,.9.05,1.61.05,2.08h2.6c.95,0,1.85,0,2.75-.05.9-.05,1.75-.09,2.56-.14.8-.05,1.52-.14,2.08-.28-.05.19-.09.38-.09.57v.57c0,.43.05.71.09.99-1.14-.05-2.22-.05-3.31-.05h-6.72c-1.14,0-2.22,0-3.36.05.1-1.61.14-3.17.19-4.73.05-1.56.1-3.17.1-4.83v-6.39c0-1.71-.05-3.32-.1-4.92M45.45,102.82v9.99l-16.95-2.32v-5.59l16.95-2.08ZM28.59,102.78v-5.02l16.95-2.04v4.97l-16.95,2.08ZM13.49,72.43c.05,1.61.14,3.17.19,4.69-.57-.05-1.18-.05-1.8-.05-.66,0-1.23,0-1.8.05.09-1.52.14-3.12.19-4.69.05-1.61.09-3.22.09-4.83v-6.39c-.05-1.61-.09-3.22-.14-4.83-.05-1.56-.14-3.17-.19-4.83.61.05,1.18.09,1.8.14.62.05,1.23.05,1.8.05.28,0,.66,0,1.09-.05.43-.05.85-.05,1.28-.05s.85-.05,1.23-.05c.38-.05.76-.05.99-.05.38,0,.8,0,1.37.05.57.05,1.14.09,1.75.24.62.14,1.18.33,1.8.57.57.24,1.14.62,1.61,1.09.47.47.9,1.04,1.18,1.75.28.71.47,1.56.47,2.6,0,1.66-.33,2.98-1.04,3.98-.71.99-1.56,1.8-2.6,2.37-1.04.57-2.13.95-3.27,1.18-1.14.19-2.18.28-3.08.28h-1.56c-.47,0-.95-.05-1.47-.09v2.04c0,1.66.05,3.27.1,4.83M91.65,0H.05s-.05.09-.05.19v120.2c0,.76.52,1.71,1.18,2.08l43.32,21.59c.66.38,1.7.43,2.37,0l43.65-21.59c.66-.38,1.18-1.33,1.18-2.08V.19s-.05-.14-.05-.19"></path>
</svg>
